# AST/ASF file generated using VICON BodyLanguage
# -----------------------------------------------
:version 1.10
:name VICON
:units
  mass 1.0
  length 0.45
  angle deg
:documentation
   .ast/.asf automatically generated from VICON data using
   VICON BodyBuilder and BodyLanguage model FoxedUp or BRILLIANT.MOD
:root
   order TX TY TZ RX RY RZ
   axis XYZ
   position 0 0 0  
   orientation 0 0 0 
:bonedata
  begin
     id 1 
     name lhipjoint
     direction 0.499407 -0.589134 0.635228 
     length 2.99786 
     axis 0 0 0  XYZ
  end
  begin
     id 2 
     name lfemur
     direction 0.34202 -0.939693 0  
     length 6.89561  
     axis 0 0 20  XYZ
    dof rx ry rz
    limits (-160.0 20.0)
           (-70.0 70.0)
           (-60.0 70.0)
  end
  begin
     id 3 
     name ltibia
     direction 0.34202 -0.939693 0   
     length 8.00494   
     axis 0 0 20   XYZ
    dof rx
    limits (-10.0 170.0)
  end
  begin
     id 4 
     name lfoot
     direction 0.0680929 -0.194353 0.978565   
     length 2.06695   
     axis -90 7.62852e-016 20   XYZ
    dof rx rz
    limits (-45.0 90.0)
           (-70.0 20.0)
  end
  begin
     id 5 
     name ltoes
     direction 1.5346e-011 -4.21731e-011 1   
     length 1.04539   
     axis -90 7.62852e-016 20   XYZ
    dof rx
    limits (-90.0 20.0)
  end
  begin
     id 6 
     name rhipjoint
     direction -0.347526 -0.63762 0.687508   
     length 2.76989  
     axis 0 0 0  XYZ 
  end
  begin
     id 7 
     name rfemur
     direction -0.34202 -0.939693 0   
     length 6.97892   
     axis 0 0 -20   XYZ
    dof rx ry rz
    limits (-160.0 20.0)
           (-70.0 70.0)
           (-70.0 60.0)
  end
  begin
     id 8 
     name rtibia
     direction -0.34202 -0.939693 0   
     length 7.77056   
     axis 0 0 -20   XYZ
    dof rx
    limits (-10.0 170.0)
 end
 begin
     id 9 
     name rfoot
     direction -0.102685 -0.282124 0.953867   
     length 2.15099  
     axis -90 -7.62852e-016 -20   XYZ
    dof rx rz
    limits (-45.0 90.0)
           (-20.0 70.0)
  end
  begin
     id 10 
     name rtoes
     direction -0.000106751 -0.00118973 0.999999   
     length 1.0765   
     axis -90 -7.62852e-016 -20   XYZ
    dof rx
    limits (-90.0 20.0)
  end
  begin
     id 11 
     name lowerback
     direction -0.0190651 0.988667 0.148909   
     length 1.90627   
     axis 0 0 0   XYZ
    dof rx ry rz
    limits (-20.0 45.0)
           (-30.0 30.0)
           (-30.0 30.0)
  end
  begin
     id 12 
     name upperback
     direction -0.0180344 0.995767 -0.0901298   
     length 1.88167   
     axis 0 0 0   XYZ
    dof rx ry rz
    limits (-20.0 45.0)
           (-30.0 30.0)
           (-30.0 30.0)
  end
  begin
     id 13 
     name thorax
     direction -0.00329861 0.986394 -0.164366   
     length 1.91528   
     axis 0 0 0   XYZ
    dof rx ry rz
    limits (-20.0 45.0)
           (-30.0 30.0)
           (-30.0 30.0)
  end
  begin
     id 14 
     name lowerneck
     direction -0.0177752 0.978637 -0.204826   
     length 2.09812   
     axis 0 0 0   XYZ
    dof rx ry rz
    limits (-20.0 45.0)
           (-30.0 30.0)
           (-30.0 30.0)
  end
  begin
     id 15 
     name upperneck
     direction 0.108032 0.994134 0.00511541   
     length 2.11937   
     axis 0 0 0   XYZ
    dof rx ry rz
    limits (-20.0 45.0)
           (-30.0 30.0)
           (-30.0 30.0)
  end
  begin
     id 16
     name head
     direction 0.0423659 0.998938 0.0181058  
     length 2.14816  
     axis 0 0 0   XYZ
    dof rx ry rz
    limits (-20.0 45.0)
           (-30.0 30.0)
           (-30.0 30.0)
  end
  begin
     id 17 
     name lclavicle
     direction 0.869509 0.396908 0.293968  
     length 4.73713  
     axis 0 0 0   XYZ
    dof ry rz
    limits (-20.0 10.0)
           (0.0 20.0)
  end
  begin
     id 18 
     name lhumerus
     direction 1 -4.49e-011 3.63829e-027   
     length 4.72096   
     axis 180 -30 -90   XYZ
    dof rx ry rz
    limits (-60.0 90.0)
           (-90.0 90.0)
           (-90.0 90.0)
  end
  begin
     id 19
     name lradius
     direction 1 -4.48932e-011 7.19196e-027   
     length 3.18148   
     axis 180 -30 -90   XYZ
    dof rx
    limits (-10.0 170.0)
  end
  begin
     id 20
     name lwrist
     direction 1 -4.48995e-011 1.85462e-026   
     length 1.59074   
     axis -1.20349e-014 90 90   XYZ
    dof ry
    limits (-180.0 0.0)
 end
  begin
     id 21 
     name lhand
     direction 1 -4.48943e-011 3.70924e-026   
     length 0.848715   
     axis -2.36681e-014 90 90   XYZ
    dof rx rz
    limits (-90.0 90.0)
           (-45.0 45.0)
  end
  begin
     id 22 
     name lfingers
     direction 1 -4.48949e-011 7.41849e-026   
     length 0.684256   
     axis -4.73363e-014 90 90   XYZ
    dof rx
    limits (0.0 90.0)
  end
  begin
     id 23
     name lthumb
     direction 0.707107 -6.35018e-011 0.707107   
     length 0.982458   
     axis -90 45 2.85299e-015   XYZ
    dof rx rz
    limits (-45.0 45.0)
           (-45.0 45.0)
  end
  begin
     id 24 
     name rclavicle
     direction -0.923214 0.372787 0.0932992   
     length 4.28107  
     axis 0 0 0   XYZ 
    dof ry rz
    limits (-10.0 20.0)
           (-20.0 0.0)
  end
  begin
     id 25 
     name rhumerus
     direction -1 -4.48968e-011 6.59881e-018  
     length 4.76918   
     axis 180 30 90   XYZ
    dof rx ry rz
    limits (-90.0 60.0)
           (-90.0 90.0)
           (-90.0 90.0)
  end
  begin
     id 26 
     name rradius
     direction -1 0.000264575 -0.000152753   
     length 3.36438   
     axis 180 30 90   XYZ
    dof rx
    limits (-10.0 170.0)
  end
  begin
     id 27 
     name rwrist
     direction -1 -4.86632e-005 -0.00030086   
     length 1.68219   
     axis -1.20349e-014 -90 -90   XYZ
    dof ry
    limits (-180.0 0.0)
  end
  begin
     id 28
     name rhand
     direction -1 -4.48915e-011 3.70924e-026   
     length 0.767694   
     axis -2.36681e-014 -90 -90   XYZ
    dof rx rz
    limits (-90.0 90.0)
           (-45.0 45.0)
  end
  begin
     id 29
     name rfingers
     direction -1 -4.49015e-011 7.41849e-026   
     length 0.618935   
     axis -4.73363e-014 -90 -90   XYZ
    dof rx
    limits (0.0 90.0)
  end
  begin
     id 30
     name rthumb
     direction -0.707107 -6.34859e-011 0.707107   
     length 0.88867   
     axis -90 -45 -2.85299e-015   XYZ
    dof rx rz
    limits (-45.0 45.0)
           (-45.0 45.0)
  end
:hierarchy
  begin
    root lhipjoint rhipjoint lowerback
    lhipjoint lfemur
    lfemur ltibia
    ltibia lfoot
    lfoot ltoes
    rhipjoint rfemur
    rfemur rtibia
    rtibia rfoot
    rfoot rtoes
    lowerback upperback
    upperback thorax
    thorax lowerneck lclavicle rclavicle
    lowerneck upperneck
    upperneck head
    lclavicle lhumerus
    lhumerus lradius
    lradius lwrist
    lwrist lhand lthumb
    lhand lfingers
    rclavicle rhumerus
    rhumerus rradius
    rradius rwrist
    rwrist rhand rthumb
    rhand rfingers
  end

#!OML:ASF C:\Documents and Settings\Administrator\Desktop\New Folder (2)\VR_Jason.ASF
:FULLY-SPECIFIED
:DEGREES
638
root 2.68008 17.9554 -1.20032 8.55791 3.90292 -11.4258
lowerback -19.521 1.98699 -3.4176
upperback 6.27911 3.90896 -1.62595
thorax 18.3646 1.456 1.38483
lowerneck 25.9523 -0.547216 -2.72492
upperneck -0.930564 0.267081 20.209
head -4.62199 -1.29631 7.03121
rclavicle 6.91771e-014 -5.24792e-014
rhumerus 15.0472 -25.5128 -55.7617
rradius 96.7239
rwrist -40.1795
rhand 26.9615 7.36897
rfingers 7.12502
rthumb 50.9557 -13.3371
lclavicle 6.91771e-014 -5.24792e-014
lhumerus 20.8967 15.4813 57.0053
lradius 73.939
lwrist 48.0346
lhand 10.2377 33.0569
lfingers 7.12502
lthumb 35.3518 59.5301
rfemur -83.1887 -25.8765 42.9263
rtibia 56.301
rfoot 29.8338 4.24601
rtoes -25.4666
lfemur -21.429 5.28868 -13.6668
ltibia 25.7879
lfoot -17.7432 5.16863
ltoes -12.5042
639
root 2.67338 17.9436 -1.21593 8.53167 3.87828 -11.598
lowerback -19.4331 1.93532 -3.39152
upperback 6.31943 3.82167 -1.58132
thorax 18.3609 1.41722 1.38931
lowerneck 25.882 -0.541097 -2.7117
upperneck -0.983988 0.292117 20.2926
head -4.63407 -1.29051 7.05412
rclavicle -1.19271e-014 -1.90833e-014
rhumerus 15.1685 -25.4836 -56.0073
rradius 96.3773
rwrist -39.8743
rhand 27.8362 13.1882
rfingers 7.12502
rthumb 51.7515 -7.06391
lclavicle -1.19271e-014 -1.90833e-014
lhumerus 21.1317 15.3753 56.8694
lradius 73.8683
lwrist 48.0885
lhand 10.2414 32.9711
lfingers 7.12502
lthumb 35.3552 59.4434
rfemur -82.6222 -25.4622 42.7171
rtibia 52.8219
rfoot 27.7558 6.35629
rtoes -28.1787
lfemur -21.7388 5.63432 -13.4059
ltibia 26.3553
lfoot -18.7599 4.90043
ltoes -11.3206
640
root 2.66689 17.9322 -1.23671 8.49015 3.86739 -11.8155
lowerback -19.2615 1.93146 -3.30806
upperback 6.41687 3.77398 -1.48567
thorax 18.3739 1.39745 1.43214
lowerneck 25.5577 -0.590511 -2.65746
upperneck -1.02749 0.233337 20.2349
head -4.58972 -1.30177 7.02146
rclavicle 4.69132e-014 1.59028e-014
rhumerus 15.1953 -25.7017 -56.1469
rradius 96.3143
rwrist -39.9083
rhand 28.271 7.97817
rfingers 7.12502
rthumb 52.146 -12.0404
lclavicle 4.69132e-014 1.59028e-014
lhumerus 21.6034 15.3396 57.0388
lradius 73.8436
lwrist 48.159
lhand 10.2284 32.8411
lfingers 7.12502
lthumb 35.3429 59.3164
rfemur -81.7715 -24.926 41.9377
rtibia 49.3296
rfoot 25.9412 6.56815
rtoes -27.3985
lfemur -22.0426 5.99149 -13.1402
ltibia 26.8364
lfoot -19.5302 4.93298
ltoes -12.2709
641
root 2.66264 17.9151 -1.24945 8.39182 3.85627 -11.9621
lowerback -19.1236 1.93081 -3.23807
upperback 6.51816 3.74054 -1.41397
thorax 18.4141 1.38357 1.46098
lowerneck 25.4229 -0.582385 -2.66124
upperneck -1.19227 0.266842 20.2462
head -4.62503 -1.28903 7.02183
rclavicle 3.18055e-014 9.54166e-015
rhumerus 14.9933 -25.8909 -56.1062
rradius 96.3398
rwrist -40.093
rhand 28.3134 10.7728
rfingers 7.12502
rthumb 52.1844 -9.22264
lclavicle 3.18055e-014 9.54166e-015
lhumerus 22.191 15.3964 57.4646
lradius 73.7919
lwrist 48.0421
lhand 10.1629 32.8177
lfingers 7.12502
lthumb 35.2808 59.3077
rfemur -80.7208 -24.4057 40.6034
rtibia 45.9518
rfoot 24.0449 6.01439
rtoes -25.4105
lfemur -22.2338 6.29009 -12.9951
ltibia 27.2824
lfoot -20.027 5.00897
ltoes -13.6544
642
root 2.65949 17.9116 -1.26193 8.20897 3.9262 -12.0308
lowerback -18.9948 1.88945 -3.26515
upperback 6.59222 3.68293 -1.37785
thorax 18.4236 1.35191 1.49467
lowerneck 25.6353 -0.558676 -2.66376
upperneck -1.38765 0.343163 20.3131
head -4.72931 -1.27925 7.04898
rclavicle -4.37326e-014 -2.8625e-014
rhumerus 14.7326 -25.9219 -56.0085
rradius 96.1095
rwrist -40.2074
rhand 28.0502 12.0332
rfingers 7.12502
rthumb 51.9458 -8.10464
lclavicle -4.37326e-014 -2.8625e-014
lhumerus 22.6055 15.3638 57.7917
lradius 73.7112
lwrist 47.8967
lhand 10.1934 32.8755
lfingers 7.12502
lthumb 35.3097 59.3587
rfemur -79.5995 -24.1102 39.223
rtibia 42.6934
rfoot 21.8673 6.20004
rtoes -25.7858
lfemur -22.2618 6.53191 -12.9327
ltibia 27.5918
lfoot -20.3911 4.99485
ltoes -15.5821
643
root 2.65092 17.9039 -1.27424 8.06468 4.10279 -12.0976
lowerback -18.9501 1.82687 -3.34737
upperback 6.67058 3.61851 -1.35842
thorax 18.4916 1.31019 1.54139
lowerneck 25.7212 -0.577698 -2.7016
upperneck -1.41179 0.32596 20.4548
head -4.75234 -1.30338 7.11003
rclavicle -2.38542e-014 2.54444e-014
rhumerus 14.5825 -26.0264 -56.0158
rradius 95.8404
rwrist -40.4217
rhand 27.9126 14.1423
rfingers 7.12502
rthumb 51.8208 -6.06918
lclavicle -2.38542e-014 2.54444e-014
lhumerus 23.026 15.1856 58.0415
lradius 73.5499
lwrist 47.8929
lhand 10.3694 32.8037
lfingers 7.12502
lthumb 35.4766 59.2472
rfemur -78.7555 -24.1081 38.2028
rtibia 39.6659
rfoot 19.8232 7.14253
rtoes -28.6727
lfemur -22.2633 6.75912 -12.8456
ltibia 27.7668
lfoot -20.7992 4.83169
ltoes -17.5197
644
root 2.6404 17.8979 -1.28286 7.97546 4.31576 -12.1957
lowerback -19.035 1.77343 -3.43959
upperback 6.72891 3.57695 -1.35103
thorax 18.6177 1.27614 1.5925
lowerneck 25.6035 -0.584597 -2.95191
upperneck -1.20022 0.242954 20.91
head -4.67387 -1.35437 7.31097
rclavicle -9.54166e-015 9.54166e-015
rhumerus 14.219 -26.264 -56.0048
rradius 95.8565
rwrist -40.7823
rhand 28.2151 11.4475
rfingers 7.12502
rthumb 52.0953 -8.60135
lclavicle -9.54166e-015 9.54166e-015
lhumerus 23.4062 14.8189 58.2148
lradius 73.3871
lwrist 47.9112
lhand 10.3014 32.7766
lfingers 7.12502
lthumb 35.4122 59.2354
rfemur -78.0846 -24.3289 37.4839
rtibia 36.8405
rfoot 18.0023 7.07501
rtoes -30.4638
lfemur -22.2392 6.96571 -12.7126
ltibia 27.7991
lfoot -21.3907 4.41588
ltoes -19.0933
645
root 2.62895 17.8989 -1.28523 7.84809 4.48271 -12.3673
lowerback -18.9981 1.77812 -3.42516
upperback 6.63325 3.57863 -1.38726
thorax 18.4744 1.28675 1.53937
lowerneck 25.7412 -0.539232 -3.46607
upperneck -0.818184 0.160855 21.7523
head -4.59478 -1.4318 7.69886
rclavicle -4.77083e-015 0
rhumerus 13.6392 -26.4831 -55.9907
rradius 95.95
rwrist -41.0792
rhand 28.6514 10.4366
rfingers 7.12502
rthumb 52.4905 -9.37309
lclavicle -4.77083e-015 0
lhumerus 23.5253 14.1395 58.198
lradius 73.1355
lwrist 47.759
lhand 10.0624 32.8335
lfingers 7.12502
lthumb 35.1855 59.3461
rfemur -77.154 -24.3267 36.5417
rtibia 34.2246
rfoot 15.5546 4.10405
rtoes -29.6146
lfemur -22.1779 7.2181 -12.4707
ltibia 27.866
lfoot -21.9427 3.80932
ltoes -19.8434
646
root 2.62025 17.9078 -1.28338 7.6521 4.62459 -12.5766
lowerback -18.8983 1.82551 -3.30288
upperback 6.49738 3.60489 -1.4272
thorax 18.2448 1.32382 1.42625
lowerneck 26.2148 -0.694029 -2.89941
upperneck -0.894868 0.11631 21.2966
head -4.668 -1.45826 7.465
rclavicle -1.74931e-014 -5.08889e-014
rhumerus 13.1898 -26.6124 -55.9716
rradius 95.8612
rwrist -41.1088
rhand 28.7516 11.2983
rfingers 7.12502
rthumb 52.5811 -8.45569
lclavicle -1.74931e-014 -5.08889e-014
lhumerus 23.6042 13.4448 58.3287
lradius 72.859
lwrist 47.3427
lhand 10.0568 32.8825
lfingers 7.12502
lthumb 35.1802 59.3963
rfemur -75.9867 -24.1997 35.4364
rtibia 31.8152
rfoot 12.1836 -0.0378183
rtoes -27.0087
lfemur -22.0024 7.36163 -12.1792
ltibia 27.9355
lfoot -22.3366 3.51096
ltoes -20.1624
647
root 2.61322 17.9148 -1.28377 7.5028 4.79835 -12.7757
lowerback -18.8524 1.85553 -3.12501
upperback 6.41515 3.5995 -1.47063
thorax 18.1244 1.34981 1.27025
lowerneck 26.5155 -0.733116 -2.70163
upperneck -0.843913 0.119215 21.1934
head -4.694 -1.46475 7.40422
rclavicle -4.05521e-014 1.27222e-014
rhumerus 12.9003 -26.6743 -55.954
rradius 95.7418
rwrist -41.075
rhand 28.4997 12.8284
rfingers 7.12502
rthumb 52.3531 -7.06513
lclavicle -4.05521e-014 1.27222e-014
lhumerus 23.706 12.9221 58.5667
lradius 73.0163
lwrist 46.8858
lhand 9.99693 33.2292
lfingers 7.12502
lthumb 35.1234 59.7564
rfemur -74.9667 -24.2199 34.4836
rtibia 29.6465
rfoot 12.3051 -1.71963
rtoes -32.5266
lfemur -21.8777 7.33233 -11.9102
ltibia 27.9231
lfoot -22.5319 3.37534
ltoes -20.6892
648
root 2.60573 17.9153 -1.28209 7.36148 4.94941 -12.8535
lowerback -18.8711 1.86843 -3.1036
upperback 6.44408 3.61626 -1.48422
thorax 18.1752 1.35935 1.24913
lowerneck 26.4685 -0.682078 -2.99631
upperneck -0.703644 0.10199 21.5483
head -4.65363 -1.48362 7.57599
rclavicle 1.43125e-014 6.36111e-015
rhumerus 13.031 -26.8349 -55.9988
rradius 95.5508
rwrist -41.0291
rhand 28.25 11.8495
rfingers 7.12502
rthumb 52.127 -8.18041
lclavicle 1.43125e-014 6.36111e-015
lhumerus 23.7272 12.4159 58.6605
lradius 73.474
lwrist 46.923
lhand 9.63798 33.4931
lfingers 7.12502
lthumb 34.7829 60.0996
rfemur -73.9719 -24.3281 33.4499
rtibia 27.7324
rfoot 11.9354 -4.54645
rtoes -35.2622
lfemur -21.7536 7.27371 -11.7842
ltibia 27.8712
lfoot -22.7732 3.2399
ltoes -21.2315
649
root 2.59821 17.9189 -1.27785 7.15438 5.12097 -12.9305
lowerback -18.9828 1.88296 -3.12954
upperback 6.55215 3.6555 -1.4908
thorax 18.3832 1.36772 1.27554
lowerneck 26.2829 -0.665074 -3.22736
upperneck -0.591986 0.0548239 21.8462
head -4.59542 -1.50753 7.71623
rclavicle 4.77083e-014 -3.81667e-014
rhumerus 13.2223 -27.0588 -56.0256
rradius 95.4481
rwrist -41.0867
rhand 27.4937 7.47115
rfingers 7.12502
rthumb 51.4402 -12.9612
lclavicle 4.77083e-014 -3.81667e-014
lhumerus 23.7314 11.9308 58.6757
lradius 73.6301
lwrist 47.2219
lhand 9.50423 33.1875
lfingers 7.12502
lthumb 34.656 59.8232
rfemur -72.8457 -24.5027 32.3315
rtibia 26.1061
rfoot 11.2022 -7.67152
rtoes -35.0624
lfemur -21.4875 7.27133 -11.6916
ltibia 27.8161
lfoot -22.9809 3.33011
ltoes -22.6714
650
root 2.58785 17.9207 -1.26977 6.95434 5.34874 -13.0656
lowerback -19.1125 1.89487 -3.11295
upperback 6.5483 3.68031 -1.52929
thorax 18.4656 1.38132 1.23488
lowerneck 26.6448 -0.666388 -3.09292
upperneck -0.717485 0.129199 21.8213
head -4.69764 -1.4983 7.69279
rclavicle -1.11319e-014 -1.90833e-014
rhumerus 13.1018 -27.1551 -55.993
rradius 95.4847
rwrist -41.1849
rhand 27.5784 11.1426
rfingers 7.12502
rthumb 51.5172 -9.24551
lclavicle -1.11319e-014 -1.90833e-014
lhumerus 23.8565 11.4418 58.9081
lradius 73.3718
lwrist 47.2112
lhand 9.65759 32.8599
lfingers 7.12502
lthumb 34.8015 59.4621
rfemur -71.6225 -24.5544 30.9654
rtibia 24.8406
rfoot 10.1675 -10.607
rtoes -33.9361
lfemur -21.2514 7.29848 -11.548
ltibia 27.7188
lfoot -22.5063 3.33527
ltoes -24.1636
